<svg xmlns="http://www.w3.org/2000/svg" version="1.1" xmlns:xlink="http://www.w3.org/1999/xlink" xmlns:svgjs="http://svgjs.dev/svgjs" width="1440" height="560" preserveAspectRatio="none" viewBox="0 0 1440 560">
    <g mask="url(&quot;#SvgjsMask1014&quot;)" fill="none">
        <rect width="1440" height="560" x="0" y="0" fill="#0e2a47"></rect>
        <path d="M-95.46 393.81L-95.46 393.81" stroke="#132e65" stroke-width="1.5"></path>
        <path d="M-95.46 393.81L-81.61 528.03" stroke="#132e65" stroke-width="1.5"></path>
        <path d="M-95.46 393.81L95.14 398.16" stroke="#132e65" stroke-width="1.5"></path>
        <path d="M-95.46 393.81L-72.01 664.93" stroke="#132e65" stroke-width="1.5"></path>
        <path d="M-95.46 393.81L199.61 356.48" stroke="#132e65" stroke-width="1.5"></path>
        <path d="M-81.61 528.03L-81.61 528.03" stroke="#132e65" stroke-width="1.5"></path>
        <path d="M-81.61 528.03L-72.01 664.93" stroke="#132e65" stroke-width="1.5"></path>
        <path d="M-81.61 528.03L95.14 398.16" stroke="#132e65" stroke-width="1.5"></path>
        <path d="M-81.61 528.03L69.58 697.28" stroke="#132e65" stroke-width="1.5"></path>
        <path d="M-81.61 528.03L199.61 356.48" stroke="#132e65" stroke-width="1.5"></path>
        <path d="M-72.01 664.93L-72.01 664.93" stroke="#132e65" stroke-width="1.5"></path>
        <path d="M-72.01 664.93L69.58 697.28" stroke="#132e65" stroke-width="1.5"></path>
        <path d="M-72.01 664.93L230.9 677.14" stroke="#132e65" stroke-width="1.5"></path>
        <path d="M-72.01 664.93L95.14 398.16" stroke="#132e65" stroke-width="1.5"></path>
        <path d="M95.14 398.16L95.14 398.16" stroke="#132e65" stroke-width="1.5"></path>
        <path d="M95.14 398.16L199.61 356.48" stroke="#132e65" stroke-width="1.5"></path>
        <path d="M69.58 697.28L69.58 697.28" stroke="#132e65" stroke-width="1.5"></path>
        <path d="M69.58 697.28L230.9 677.14" stroke="#132e65" stroke-width="1.5"></path>
        <path d="M69.58 697.28L258.3 519.63" stroke="#132e65" stroke-width="1.5"></path>
        <path d="M69.58 697.28L356.55 661.51" stroke="#132e65" stroke-width="1.5"></path>
        <path d="M69.58 697.28L95.14 398.16" stroke="#132e65" stroke-width="1.5"></path>
        <path d="M199.61 356.48L199.61 356.48" stroke="#132e65" stroke-width="1.5"></path>
        <path d="M199.61 356.48L258.3 519.63" stroke="#132e65" stroke-width="1.5"></path>
        <path d="M199.61 356.48L403.5 343.72" stroke="#132e65" stroke-width="1.5"></path>
        <path d="M258.3 519.63L258.3 519.63" stroke="#132e65" stroke-width="1.5"></path>
        <path d="M258.3 519.63L343.4 557.17" stroke="#132e65" stroke-width="1.5"></path>
        <path d="M258.3 519.63L230.9 677.14" stroke="#132e65" stroke-width="1.5"></path>
        <path d="M258.3 519.63L356.55 661.51" stroke="#132e65" stroke-width="1.5"></path>
        <path d="M230.9 677.14L230.9 677.14" stroke="#132e65" stroke-width="1.5"></path>
        <path d="M230.9 677.14L356.55 661.51" stroke="#132e65" stroke-width="1.5"></path>
        <path d="M230.9 677.14L343.4 557.17" stroke="#132e65" stroke-width="1.5"></path>
        <path d="M230.9 677.14L95.14 398.16" stroke="#132e65" stroke-width="1.5"></path>
        <path d="M403.5 343.72L403.5 343.72" stroke="#132e65" stroke-width="1.5"></path>
        <path d="M403.5 343.72L524.12 401.31" stroke="#132e65" stroke-width="1.5"></path>
        <path d="M403.5 343.72L343.4 557.17" stroke="#132e65" stroke-width="1.5"></path>
        <path d="M403.5 343.72L258.3 519.63" stroke="#132e65" stroke-width="1.5"></path>
        <path d="M403.5 343.72L559.23 542.38" stroke="#132e65" stroke-width="1.5"></path>
        <path d="M403.5 343.72L661.96 340.62" stroke="#132e65" stroke-width="1.5"></path>
        <path d="M343.4 557.17L343.4 557.17" stroke="#132e65" stroke-width="1.5"></path>
        <path d="M343.4 557.17L356.55 661.51" stroke="#132e65" stroke-width="1.5"></path>
        <path d="M343.4 557.17L559.23 542.38" stroke="#132e65" stroke-width="1.5"></path>
        <path d="M356.55 661.51L356.55 661.51" stroke="#132e65" stroke-width="1.5"></path>
        <path d="M524.12 401.31L524.12 401.31" stroke="#132e65" stroke-width="1.5"></path>
        <path d="M524.12 401.31L559.23 542.38" stroke="#132e65" stroke-width="1.5"></path>
        <path d="M524.12 401.31L661.96 340.62" stroke="#132e65" stroke-width="1.5"></path>
        <path d="M524.12 401.31L343.4 557.17" stroke="#132e65" stroke-width="1.5"></path>
        <path d="M559.23 542.38L559.23 542.38" stroke="#132e65" stroke-width="1.5"></path>
        <path d="M559.23 542.38L546.52 676.5" stroke="#132e65" stroke-width="1.5"></path>
        <path d="M559.23 542.38L666 649.67" stroke="#132e65" stroke-width="1.5"></path>
        <path d="M546.52 676.5L546.52 676.5" stroke="#132e65" stroke-width="1.5"></path>
        <path d="M546.52 676.5L666 649.67" stroke="#132e65" stroke-width="1.5"></path>
        <path d="M546.52 676.5L356.55 661.51" stroke="#132e65" stroke-width="1.5"></path>
        <path d="M546.52 676.5L343.4 557.17" stroke="#132e65" stroke-width="1.5"></path>
        <path d="M546.52 676.5L524.12 401.31" stroke="#132e65" stroke-width="1.5"></path>
        <path d="M661.96 340.62L661.96 340.62" stroke="#132e65" stroke-width="1.5"></path>
        <path d="M661.96 340.62L800.3 240.78" stroke="#132e65" stroke-width="1.5"></path>
        <path d="M661.96 340.62L859.84 397.39" stroke="#132e65" stroke-width="1.5"></path>
        <path d="M661.96 340.62L559.23 542.38" stroke="#132e65" stroke-width="1.5"></path>
        <path d="M661.96 340.62L815.92 545.07" stroke="#132e65" stroke-width="1.5"></path>
        <path d="M666 649.67L666 649.67" stroke="#132e65" stroke-width="1.5"></path>
        <path d="M800.3 240.78L800.3 240.78" stroke="#132e65" stroke-width="1.5"></path>
        <path d="M800.3 240.78L957.1 238.73" stroke="#132e65" stroke-width="1.5"></path>
        <path d="M800.3 240.78L859.84 397.39" stroke="#132e65" stroke-width="1.5"></path>
        <path d="M800.3 240.78L988.62 42.18" stroke="#132e65" stroke-width="1.5"></path>
        <path d="M800.3 240.78L815.92 545.07" stroke="#132e65" stroke-width="1.5"></path>
        <path d="M859.84 397.39L859.84 397.39" stroke="#132e65" stroke-width="1.5"></path>
        <path d="M859.84 397.39L815.92 545.07" stroke="#132e65" stroke-width="1.5"></path>
        <path d="M815.92 545.07L815.92 545.07" stroke="#132e65" stroke-width="1.5"></path>
        <path d="M815.92 545.07L832.47 640.29" stroke="#132e65" stroke-width="1.5"></path>
        <path d="M815.92 545.07L666 649.67" stroke="#132e65" stroke-width="1.5"></path>
        <path d="M815.92 545.07L1001.94 505.29" stroke="#132e65" stroke-width="1.5"></path>
        <path d="M832.47 640.29L832.47 640.29" stroke="#132e65" stroke-width="1.5"></path>
        <path d="M832.47 640.29L975.83 695.33" stroke="#132e65" stroke-width="1.5"></path>
        <path d="M997.88 -96.5L997.88 -96.5" stroke="#132e65" stroke-width="1.5"></path>
        <path d="M997.88 -96.5L1089.06 -102.57" stroke="#132e65" stroke-width="1.5"></path>
        <path d="M997.88 -96.5L988.62 42.18" stroke="#132e65" stroke-width="1.5"></path>
        <path d="M997.88 -96.5L1110.11 102.3" stroke="#132e65" stroke-width="1.5"></path>
        <path d="M988.62 42.18L988.62 42.18" stroke="#132e65" stroke-width="1.5"></path>
        <path d="M988.62 42.18L1110.11 102.3" stroke="#132e65" stroke-width="1.5"></path>
        <path d="M957.1 238.73L957.1 238.73" stroke="#132e65" stroke-width="1.5"></path>
        <path d="M957.1 238.73L1132.77 192.18" stroke="#132e65" stroke-width="1.5"></path>
        <path d="M957.1 238.73L859.84 397.39" stroke="#132e65" stroke-width="1.5"></path>
        <path d="M1001.94 505.29L1001.94 505.29" stroke="#132e65" stroke-width="1.5"></path>
        <path d="M1001.94 505.29L1158.52 533.3" stroke="#132e65" stroke-width="1.5"></path>
        <path d="M1001.94 505.29L859.84 397.39" stroke="#132e65" stroke-width="1.5"></path>
        <path d="M975.83 695.33L975.83 695.33" stroke="#132e65" stroke-width="1.5"></path>
        <path d="M975.83 695.33L1144.88 650.64" stroke="#132e65" stroke-width="1.5"></path>
        <path d="M975.83 695.33L1001.94 505.29" stroke="#132e65" stroke-width="1.5"></path>
        <path d="M975.83 695.33L815.92 545.07" stroke="#132e65" stroke-width="1.5"></path>
        <path d="M975.83 695.33L1158.52 533.3" stroke="#132e65" stroke-width="1.5"></path>
        <path d="M1089.06 -102.57L1089.06 -102.57" stroke="#132e65" stroke-width="1.5"></path>
        <path d="M1089.06 -102.57L1242.6 -105.22" stroke="#132e65" stroke-width="1.5"></path>
        <path d="M1089.06 -102.57L988.62 42.18" stroke="#132e65" stroke-width="1.5"></path>
        <path d="M1089.06 -102.57L1110.11 102.3" stroke="#132e65" stroke-width="1.5"></path>
        <path d="M1089.06 -102.57L1278.69 74.95" stroke="#132e65" stroke-width="1.5"></path>
        <path d="M1089.06 -102.57L1132.77 192.18" stroke="#132e65" stroke-width="1.5"></path>
        <path d="M1110.11 102.3L1110.11 102.3" stroke="#132e65" stroke-width="1.5"></path>
        <path d="M1110.11 102.3L1132.77 192.18" stroke="#132e65" stroke-width="1.5"></path>
        <path d="M1132.77 192.18L1132.77 192.18" stroke="#132e65" stroke-width="1.5"></path>
        <path d="M1132.77 192.18L1265.89 236.91" stroke="#132e65" stroke-width="1.5"></path>
        <path d="M1132.77 192.18L1123.37 337.57" stroke="#132e65" stroke-width="1.5"></path>
        <path d="M1132.77 192.18L1278.69 74.95" stroke="#132e65" stroke-width="1.5"></path>
        <path d="M1123.37 337.57L1123.37 337.57" stroke="#132e65" stroke-width="1.5"></path>
        <path d="M1123.37 337.57L1265.89 236.91" stroke="#132e65" stroke-width="1.5"></path>
        <path d="M1123.37 337.57L1304.78 377.55" stroke="#132e65" stroke-width="1.5"></path>
        <path d="M1123.37 337.57L957.1 238.73" stroke="#132e65" stroke-width="1.5"></path>
        <path d="M1158.52 533.3L1158.52 533.3" stroke="#132e65" stroke-width="1.5"></path>
        <path d="M1158.52 533.3L1144.88 650.64" stroke="#132e65" stroke-width="1.5"></path>
        <path d="M1158.52 533.3L1123.37 337.57" stroke="#132e65" stroke-width="1.5"></path>
        <path d="M1144.88 650.64L1144.88 650.64" stroke="#132e65" stroke-width="1.5"></path>
        <path d="M1144.88 650.64L1304.72 706.14" stroke="#132e65" stroke-width="1.5"></path>
        <path d="M1242.6 -105.22L1242.6 -105.22" stroke="#132e65" stroke-width="1.5"></path>
        <path d="M1242.6 -105.22L1278.69 74.95" stroke="#132e65" stroke-width="1.5"></path>
        <path d="M1242.6 -105.22L1432.34 -47.92" stroke="#132e65" stroke-width="1.5"></path>
        <path d="M1242.6 -105.22L997.88 -96.5" stroke="#132e65" stroke-width="1.5"></path>
        <path d="M1242.6 -105.22L1110.11 102.3" stroke="#132e65" stroke-width="1.5"></path>
        <path d="M1242.6 -105.22L1456.13 70.46" stroke="#132e65" stroke-width="1.5"></path>
        <path d="M1278.69 74.95L1278.69 74.95" stroke="#132e65" stroke-width="1.5"></path>
        <path d="M1278.69 74.95L1265.89 236.91" stroke="#132e65" stroke-width="1.5"></path>
        <path d="M1278.69 74.95L1110.11 102.3" stroke="#132e65" stroke-width="1.5"></path>
        <path d="M1278.69 74.95L1456.13 70.46" stroke="#132e65" stroke-width="1.5"></path>
        <path d="M1265.89 236.91L1265.89 236.91" stroke="#132e65" stroke-width="1.5"></path>
        <path d="M1265.89 236.91L1304.78 377.55" stroke="#132e65" stroke-width="1.5"></path>
        <path d="M1265.89 236.91L1456.29 246.65" stroke="#132e65" stroke-width="1.5"></path>
        <path d="M1304.78 377.55L1304.78 377.55" stroke="#132e65" stroke-width="1.5"></path>
        <path d="M1304.78 377.55L1461 401.48" stroke="#132e65" stroke-width="1.5"></path>
        <path d="M1304.72 706.14L1304.72 706.14" stroke="#132e65" stroke-width="1.5"></path>
        <path d="M1304.72 706.14L1392.73 709.94" stroke="#132e65" stroke-width="1.5"></path>
        <path d="M1304.72 706.14L1393.69 536.86" stroke="#132e65" stroke-width="1.5"></path>
        <path d="M1432.34 -47.92L1432.34 -47.92" stroke="#132e65" stroke-width="1.5"></path>
        <path d="M1432.34 -47.92L1456.13 70.46" stroke="#132e65" stroke-width="1.5"></path>
        <path d="M1432.34 -47.92L1609.34 -95.57" stroke="#132e65" stroke-width="1.5"></path>
        <path d="M1456.13 70.46L1456.13 70.46" stroke="#132e65" stroke-width="1.5"></path>
        <path d="M1456.13 70.46L1550.56 106.22" stroke="#132e65" stroke-width="1.5"></path>
        <path d="M1456.29 246.65L1456.29 246.65" stroke="#132e65" stroke-width="1.5"></path>
        <path d="M1456.29 246.65L1569.24 259.97" stroke="#132e65" stroke-width="1.5"></path>
        <path d="M1456.29 246.65L1461 401.48" stroke="#132e65" stroke-width="1.5"></path>
        <path d="M1456.29 246.65L1550.56 106.22" stroke="#132e65" stroke-width="1.5"></path>
        <path d="M1456.29 246.65L1456.13 70.46" stroke="#132e65" stroke-width="1.5"></path>
        <path d="M1461 401.48L1461 401.48" stroke="#132e65" stroke-width="1.5"></path>
        <path d="M1461 401.48L1581.05 398.01" stroke="#132e65" stroke-width="1.5"></path>
        <path d="M1461 401.48L1549.85 514.46" stroke="#132e65" stroke-width="1.5"></path>
        <path d="M1393.69 536.86L1393.69 536.86" stroke="#132e65" stroke-width="1.5"></path>
        <path d="M1393.69 536.86L1461 401.48" stroke="#132e65" stroke-width="1.5"></path>
        <path d="M1393.69 536.86L1549.85 514.46" stroke="#132e65" stroke-width="1.5"></path>
        <path d="M1392.73 709.94L1392.73 709.94" stroke="#132e65" stroke-width="1.5"></path>
        <path d="M1392.73 709.94L1393.69 536.86" stroke="#132e65" stroke-width="1.5"></path>
        <path d="M1392.73 709.94L1607.37 665.94" stroke="#132e65" stroke-width="1.5"></path>
        <path d="M1609.34 -95.57L1609.34 -95.57" stroke="#132e65" stroke-width="1.5"></path>
        <path d="M1609.34 -95.57L1550.56 106.22" stroke="#132e65" stroke-width="1.5"></path>
        <path d="M1609.34 -95.57L1456.13 70.46" stroke="#132e65" stroke-width="1.5"></path>
        <path d="M1609.34 -95.57L1569.24 259.97" stroke="#132e65" stroke-width="1.5"></path>
        <path d="M1550.56 106.22L1550.56 106.22" stroke="#132e65" stroke-width="1.5"></path>
        <path d="M1550.56 106.22L1569.24 259.97" stroke="#132e65" stroke-width="1.5"></path>
        <path d="M1550.56 106.22L1432.34 -47.92" stroke="#132e65" stroke-width="1.5"></path>
        <path d="M1569.24 259.97L1569.24 259.97" stroke="#132e65" stroke-width="1.5"></path>
        <path d="M1569.24 259.97L1581.05 398.01" stroke="#132e65" stroke-width="1.5"></path>
        <path d="M1569.24 259.97L1461 401.48" stroke="#132e65" stroke-width="1.5"></path>
        <path d="M1569.24 259.97L1456.13 70.46" stroke="#132e65" stroke-width="1.5"></path>
        <path d="M1581.05 398.01L1581.05 398.01" stroke="#132e65" stroke-width="1.5"></path>
        <path d="M1581.05 398.01L1549.85 514.46" stroke="#132e65" stroke-width="1.5"></path>
        <path d="M1549.85 514.46L1549.85 514.46" stroke="#132e65" stroke-width="1.5"></path>
        <path d="M1607.37 665.94L1607.37 665.94" stroke="#132e65" stroke-width="1.5"></path>
        <path d="M1607.37 665.94L1549.85 514.46" stroke="#132e65" stroke-width="1.5"></path>
        <path d="M1607.37 665.94L1393.69 536.86" stroke="#132e65" stroke-width="1.5"></path>
        <path d="M1607.37 665.94L1581.05 398.01" stroke="#132e65" stroke-width="1.5"></path>
        <circle r="5" cx="-95.46" cy="393.81" fill="#132e65"></circle>
        <circle r="5" cx="-81.61" cy="528.03" fill="#132e65"></circle>
        <circle r="5" cx="-72.01" cy="664.93" fill="#132e65"></circle>
        <circle r="5" cx="95.14" cy="398.16" fill="#132e65"></circle>
        <circle r="5" cx="69.58" cy="697.28" fill="#132e65"></circle>
        <circle r="5" cx="199.61" cy="356.48" fill="#132e65"></circle>
        <circle r="5" cx="258.3" cy="519.63" fill="#132e65"></circle>
        <circle r="5" cx="230.9" cy="677.14" fill="#132e65"></circle>
        <circle r="5" cx="403.5" cy="343.72" fill="#132e65"></circle>
        <circle r="5" cx="343.4" cy="557.17" fill="#132e65"></circle>
        <circle r="5" cx="356.55" cy="661.51" fill="#132e65"></circle>
        <circle r="5" cx="524.12" cy="401.31" fill="#132e65"></circle>
        <circle r="5" cx="559.23" cy="542.38" fill="#132e65"></circle>
        <circle r="5" cx="546.52" cy="676.5" fill="#132e65"></circle>
        <circle r="5" cx="661.96" cy="340.62" fill="#132e65"></circle>
        <circle r="5" cx="666" cy="649.67" fill="#132e65"></circle>
        <circle r="5" cx="800.3" cy="240.78" fill="#132e65"></circle>
        <circle r="5" cx="859.84" cy="397.39" fill="#132e65"></circle>
        <circle r="5" cx="815.92" cy="545.07" fill="#132e65"></circle>
        <circle r="5" cx="832.47" cy="640.29" fill="#132e65"></circle>
        <circle r="5" cx="997.88" cy="-96.5" fill="#132e65"></circle>
        <circle r="5" cx="988.62" cy="42.18" fill="#132e65"></circle>
        <circle r="5" cx="957.1" cy="238.73" fill="#132e65"></circle>
        <circle r="5" cx="1001.94" cy="505.29" fill="#132e65"></circle>
        <circle r="5" cx="975.83" cy="695.33" fill="#132e65"></circle>
        <circle r="5" cx="1089.06" cy="-102.57" fill="#132e65"></circle>
        <circle r="5" cx="1110.11" cy="102.3" fill="#132e65"></circle>
        <circle r="5" cx="1132.77" cy="192.18" fill="#132e65"></circle>
        <circle r="5" cx="1123.37" cy="337.57" fill="#132e65"></circle>
        <circle r="5" cx="1158.52" cy="533.3" fill="#132e65"></circle>
        <circle r="5" cx="1144.88" cy="650.64" fill="#132e65"></circle>
        <circle r="5" cx="1242.6" cy="-105.22" fill="#132e65"></circle>
        <circle r="5" cx="1278.69" cy="74.95" fill="#132e65"></circle>
        <circle r="5" cx="1265.89" cy="236.91" fill="#132e65"></circle>
        <circle r="5" cx="1304.78" cy="377.55" fill="#132e65"></circle>
        <circle r="5" cx="1304.72" cy="706.14" fill="#132e65"></circle>
        <circle r="5" cx="1432.34" cy="-47.92" fill="#132e65"></circle>
        <circle r="5" cx="1456.13" cy="70.46" fill="#132e65"></circle>
        <circle r="5" cx="1456.29" cy="246.65" fill="#132e65"></circle>
        <circle r="5" cx="1461" cy="401.48" fill="#132e65"></circle>
        <circle r="5" cx="1393.69" cy="536.86" fill="#132e65"></circle>
        <circle r="5" cx="1392.73" cy="709.94" fill="#132e65"></circle>
        <circle r="5" cx="1609.34" cy="-95.57" fill="#132e65"></circle>
        <circle r="5" cx="1550.56" cy="106.22" fill="#132e65"></circle>
        <circle r="5" cx="1569.24" cy="259.97" fill="#132e65"></circle>
        <circle r="5" cx="1581.05" cy="398.01" fill="#132e65"></circle>
        <circle r="5" cx="1549.85" cy="514.46" fill="#132e65"></circle>
        <circle r="5" cx="1607.37" cy="665.94" fill="#132e65"></circle>
        <path d="M72.36 701.85L72.36 701.85" stroke="hsl(228.5, 77.2%, 51.5%)" stroke-width="1.5"></path>
        <path d="M72.36 701.85L-69.45 700.8" stroke="hsl(228.5, 77.2%, 51.5%)" stroke-width="1.5"></path>
        <path d="M72.36 701.85L227.9 681.95" stroke="hsl(228.5, 77.2%, 51.5%)" stroke-width="1.5"></path>
        <path d="M72.36 701.85L78.16 518.33" stroke="hsl(228.5, 77.2%, 51.5%)" stroke-width="1.5"></path>
        <path d="M211.08 556.68L211.08 556.68" stroke="hsl(228.5, 77.2%, 51.5%)" stroke-width="1.5"></path>
        <path d="M211.08 556.68L227.9 681.95" stroke="hsl(228.5, 77.2%, 51.5%)" stroke-width="1.5"></path>
        <path d="M211.08 556.68L78.16 518.33" stroke="hsl(228.5, 77.2%, 51.5%)" stroke-width="1.5"></path>
        <path d="M211.08 556.68L364.42 554.83" stroke="hsl(228.5, 77.2%, 51.5%)" stroke-width="1.5"></path>
        <path d="M211.08 556.68L72.36 701.85" stroke="hsl(228.5, 77.2%, 51.5%)" stroke-width="1.5"></path>
        <path d="M211.08 556.68L379.32 672.18" stroke="hsl(228.5, 77.2%, 51.5%)" stroke-width="1.5"></path>
        <path d="M364.42 554.83L364.42 554.83" stroke="hsl(228.5, 77.2%, 51.5%)" stroke-width="1.5"></path>
        <path d="M364.42 554.83L379.32 672.18" stroke="hsl(228.5, 77.2%, 51.5%)" stroke-width="1.5"></path>
        <path d="M379.32 672.18L379.32 672.18" stroke="hsl(228.5, 77.2%, 51.5%)" stroke-width="1.5"></path>
        <path d="M379.32 672.18L227.9 681.95" stroke="hsl(228.5, 77.2%, 51.5%)" stroke-width="1.5"></path>
        <path d="M379.32 672.18L539.25 667.12" stroke="hsl(228.5, 77.2%, 51.5%)" stroke-width="1.5"></path>
        <path d="M379.32 672.18L523.32 541.55" stroke="hsl(228.5, 77.2%, 51.5%)" stroke-width="1.5"></path>
        <path d="M684.58 398.82L684.58 398.82" stroke="hsl(228.5, 77.2%, 51.5%)" stroke-width="1.5"></path>
        <path d="M684.58 398.82L677.94 531.21" stroke="hsl(228.5, 77.2%, 51.5%)" stroke-width="1.5"></path>
        <path d="M684.58 398.82L523.32 541.55" stroke="hsl(228.5, 77.2%, 51.5%)" stroke-width="1.5"></path>
        <path d="M684.58 398.82L810.55 642.62" stroke="hsl(228.5, 77.2%, 51.5%)" stroke-width="1.5"></path>
        <path d="M684.58 398.82L965.88 346.44" stroke="hsl(228.5, 77.2%, 51.5%)" stroke-width="1.5"></path>
        <path d="M684.58 398.82L539.25 667.12" stroke="hsl(228.5, 77.2%, 51.5%)" stroke-width="1.5"></path>
        <path d="M677.94 531.21L677.94 531.21" stroke="hsl(228.5, 77.2%, 51.5%)" stroke-width="1.5"></path>
        <path d="M677.94 531.21L523.32 541.55" stroke="hsl(228.5, 77.2%, 51.5%)" stroke-width="1.5"></path>
        <path d="M677.94 531.21L810.55 642.62" stroke="hsl(228.5, 77.2%, 51.5%)" stroke-width="1.5"></path>
        <path d="M995.25 535.53L995.25 535.53" stroke="hsl(228.5, 77.2%, 51.5%)" stroke-width="1.5"></path>
        <path d="M995.25 535.53L1010.76 656.17" stroke="hsl(228.5, 77.2%, 51.5%)" stroke-width="1.5"></path>
        <path d="M995.25 535.53L1111.22 398.93" stroke="hsl(228.5, 77.2%, 51.5%)" stroke-width="1.5"></path>
        <path d="M1293.16 -76.61L1293.16 -76.61" stroke="hsl(228.5, 77.2%, 51.5%)" stroke-width="1.5"></path>
        <path d="M1293.16 -76.61L1395.27 -97.03" stroke="hsl(228.5, 77.2%, 51.5%)" stroke-width="1.5"></path>
        <path d="M1293.16 -76.61L1400.67 43.29" stroke="hsl(228.5, 77.2%, 51.5%)" stroke-width="1.5"></path>
        <path d="M1293.16 -76.61L1248.18 83.31" stroke="hsl(228.5, 77.2%, 51.5%)" stroke-width="1.5"></path>
        <path d="M1293.16 -76.61L1131.27 91.52" stroke="hsl(228.5, 77.2%, 51.5%)" stroke-width="1.5"></path>
        <path d="M1293.16 -76.61L1556.46 -87.81" stroke="hsl(228.5, 77.2%, 51.5%)" stroke-width="1.5"></path>
        <path d="M1293.16 -76.61L1284.65 226.18" stroke="hsl(228.5, 77.2%, 51.5%)" stroke-width="1.5"></path>
        <path d="M1248.18 83.31L1248.18 83.31" stroke="hsl(228.5, 77.2%, 51.5%)" stroke-width="1.5"></path>
        <path d="M1248.18 83.31L1131.27 91.52" stroke="hsl(228.5, 77.2%, 51.5%)" stroke-width="1.5"></path>
        <path d="M1248.18 83.31L1284.65 226.18" stroke="hsl(228.5, 77.2%, 51.5%)" stroke-width="1.5"></path>
        <path d="M1248.18 83.31L1400.67 43.29" stroke="hsl(228.5, 77.2%, 51.5%)" stroke-width="1.5"></path>
        <path d="M1272.66 348.77L1272.66 348.77" stroke="hsl(228.5, 77.2%, 51.5%)" stroke-width="1.5"></path>
        <path d="M1272.66 348.77L1284.65 226.18" stroke="hsl(228.5, 77.2%, 51.5%)" stroke-width="1.5"></path>
        <path d="M1272.66 348.77L1111.22 398.93" stroke="hsl(228.5, 77.2%, 51.5%)" stroke-width="1.5"></path>
        <path d="M1274.09 546.68L1274.09 546.68" stroke="hsl(228.5, 77.2%, 51.5%)" stroke-width="1.5"></path>
        <path d="M1274.09 546.68L1287.31 640.07" stroke="hsl(228.5, 77.2%, 51.5%)" stroke-width="1.5"></path>
        <path d="M1274.09 546.68L1397.24 505.16" stroke="hsl(228.5, 77.2%, 51.5%)" stroke-width="1.5"></path>
        <path d="M1274.09 546.68L1440.43 641.6" stroke="hsl(228.5, 77.2%, 51.5%)" stroke-width="1.5"></path>
        <path d="M1274.09 546.68L1272.66 348.77" stroke="hsl(228.5, 77.2%, 51.5%)" stroke-width="1.5"></path>
        <path d="M1453.39 240.01L1453.39 240.01" stroke="hsl(228.5, 77.2%, 51.5%)" stroke-width="1.5"></path>
        <path d="M1453.39 240.01L1560.29 191.2" stroke="hsl(228.5, 77.2%, 51.5%)" stroke-width="1.5"></path>
        <path d="M1453.39 240.01L1453.23 384.81" stroke="hsl(228.5, 77.2%, 51.5%)" stroke-width="1.5"></path>
        <path d="M1453.39 240.01L1284.65 226.18" stroke="hsl(228.5, 77.2%, 51.5%)" stroke-width="1.5"></path>
        <path d="M1453.39 240.01L1567.18 72.97" stroke="hsl(228.5, 77.2%, 51.5%)" stroke-width="1.5"></path>
        <path d="M1453.39 240.01L1400.67 43.29" stroke="hsl(228.5, 77.2%, 51.5%)" stroke-width="1.5"></path>
        <path d="M1453.23 384.81L1453.23 384.81" stroke="hsl(228.5, 77.2%, 51.5%)" stroke-width="1.5"></path>
        <path d="M1453.23 384.81L1397.24 505.16" stroke="hsl(228.5, 77.2%, 51.5%)" stroke-width="1.5"></path>
        <path d="M1453.23 384.81L1590.56 390.61" stroke="hsl(228.5, 77.2%, 51.5%)" stroke-width="1.5"></path>
        <path d="M1453.23 384.81L1272.66 348.77" stroke="hsl(228.5, 77.2%, 51.5%)" stroke-width="1.5"></path>
        <path d="M1453.23 384.81L1571.68 541.39" stroke="hsl(228.5, 77.2%, 51.5%)" stroke-width="1.5"></path>
        <path d="M1453.23 384.81L1560.29 191.2" stroke="hsl(228.5, 77.2%, 51.5%)" stroke-width="1.5"></path>
        <path d="M1397.24 505.16L1397.24 505.16" stroke="hsl(228.5, 77.2%, 51.5%)" stroke-width="1.5"></path>
        <path d="M1556.46 -87.81L1556.46 -87.81" stroke="hsl(228.5, 77.2%, 51.5%)" stroke-width="1.5"></path>
        <path d="M1556.46 -87.81L1567.18 72.97" stroke="hsl(228.5, 77.2%, 51.5%)" stroke-width="1.5"></path>
        <path d="M1556.46 -87.81L1395.27 -97.03" stroke="hsl(228.5, 77.2%, 51.5%)" stroke-width="1.5"></path>
        <path d="M1556.46 -87.81L1400.67 43.29" stroke="hsl(228.5, 77.2%, 51.5%)" stroke-width="1.5"></path>
        <path d="M-61.77 487.53L-61.77 487.53" stroke="hsl(228.5, 77.2%, 51.5%)" stroke-width="1.5"></path>
        <path d="M-61.77 487.53L78.16 518.33" stroke="hsl(228.5, 77.2%, 51.5%)" stroke-width="1.5"></path>
        <path d="M-61.77 487.53L-69.45 700.8" stroke="hsl(228.5, 77.2%, 51.5%)" stroke-width="1.5"></path>
        <path d="M-61.77 487.53L72.36 701.85" stroke="hsl(228.5, 77.2%, 51.5%)" stroke-width="1.5"></path>
        <path d="M-61.77 487.53L211.08 556.68" stroke="hsl(228.5, 77.2%, 51.5%)" stroke-width="1.5"></path>
        <path d="M-61.77 487.53L227.9 681.95" stroke="hsl(228.5, 77.2%, 51.5%)" stroke-width="1.5"></path>
        <path d="M-69.45 700.8L-69.45 700.8" stroke="hsl(228.5, 77.2%, 51.5%)" stroke-width="1.5"></path>
        <path d="M78.16 518.33L78.16 518.33" stroke="hsl(228.5, 77.2%, 51.5%)" stroke-width="1.5"></path>
        <path d="M78.16 518.33L227.9 681.95" stroke="hsl(228.5, 77.2%, 51.5%)" stroke-width="1.5"></path>
        <path d="M227.9 681.95L227.9 681.95" stroke="hsl(228.5, 77.2%, 51.5%)" stroke-width="1.5"></path>
        <path d="M227.9 681.95L364.42 554.83" stroke="hsl(228.5, 77.2%, 51.5%)" stroke-width="1.5"></path>
        <path d="M523.32 541.55L523.32 541.55" stroke="hsl(228.5, 77.2%, 51.5%)" stroke-width="1.5"></path>
        <path d="M523.32 541.55L539.25 667.12" stroke="hsl(228.5, 77.2%, 51.5%)" stroke-width="1.5"></path>
        <path d="M539.25 667.12L539.25 667.12" stroke="hsl(228.5, 77.2%, 51.5%)" stroke-width="1.5"></path>
        <path d="M539.25 667.12L677.94 531.21" stroke="hsl(228.5, 77.2%, 51.5%)" stroke-width="1.5"></path>
        <path d="M539.25 667.12L364.42 554.83" stroke="hsl(228.5, 77.2%, 51.5%)" stroke-width="1.5"></path>
        <path d="M539.25 667.12L810.55 642.62" stroke="hsl(228.5, 77.2%, 51.5%)" stroke-width="1.5"></path>
        <path d="M810.55 642.62L810.55 642.62" stroke="hsl(228.5, 77.2%, 51.5%)" stroke-width="1.5"></path>
        <path d="M810.55 642.62L1010.76 656.17" stroke="hsl(228.5, 77.2%, 51.5%)" stroke-width="1.5"></path>
        <path d="M810.55 642.62L995.25 535.53" stroke="hsl(228.5, 77.2%, 51.5%)" stroke-width="1.5"></path>
        <path d="M810.55 642.62L523.32 541.55" stroke="hsl(228.5, 77.2%, 51.5%)" stroke-width="1.5"></path>
        <path d="M965.88 346.44L965.88 346.44" stroke="hsl(228.5, 77.2%, 51.5%)" stroke-width="1.5"></path>
        <path d="M965.88 346.44L1111.22 398.93" stroke="hsl(228.5, 77.2%, 51.5%)" stroke-width="1.5"></path>
        <path d="M965.88 346.44L995.25 535.53" stroke="hsl(228.5, 77.2%, 51.5%)" stroke-width="1.5"></path>
        <path d="M965.88 346.44L1095.48 198.3" stroke="hsl(228.5, 77.2%, 51.5%)" stroke-width="1.5"></path>
        <path d="M965.88 346.44L1131.27 91.52" stroke="hsl(228.5, 77.2%, 51.5%)" stroke-width="1.5"></path>
        <path d="M1010.76 656.17L1010.76 656.17" stroke="hsl(228.5, 77.2%, 51.5%)" stroke-width="1.5"></path>
        <path d="M1010.76 656.17L1113.17 686.92" stroke="hsl(228.5, 77.2%, 51.5%)" stroke-width="1.5"></path>
        <path d="M1010.76 656.17L1111.22 398.93" stroke="hsl(228.5, 77.2%, 51.5%)" stroke-width="1.5"></path>
        <path d="M1131.27 91.52L1131.27 91.52" stroke="hsl(228.5, 77.2%, 51.5%)" stroke-width="1.5"></path>
        <path d="M1131.27 91.52L1095.48 198.3" stroke="hsl(228.5, 77.2%, 51.5%)" stroke-width="1.5"></path>
        <path d="M1131.27 91.52L1284.65 226.18" stroke="hsl(228.5, 77.2%, 51.5%)" stroke-width="1.5"></path>
        <path d="M1095.48 198.3L1095.48 198.3" stroke="hsl(228.5, 77.2%, 51.5%)" stroke-width="1.5"></path>
        <path d="M1095.48 198.3L1248.18 83.31" stroke="hsl(228.5, 77.2%, 51.5%)" stroke-width="1.5"></path>
        <path d="M1095.48 198.3L1284.65 226.18" stroke="hsl(228.5, 77.2%, 51.5%)" stroke-width="1.5"></path>
        <path d="M1111.22 398.93L1111.22 398.93" stroke="hsl(228.5, 77.2%, 51.5%)" stroke-width="1.5"></path>
        <path d="M1111.22 398.93L1095.48 198.3" stroke="hsl(228.5, 77.2%, 51.5%)" stroke-width="1.5"></path>
        <path d="M1111.22 398.93L1274.09 546.68" stroke="hsl(228.5, 77.2%, 51.5%)" stroke-width="1.5"></path>
        <path d="M1113.17 686.92L1113.17 686.92" stroke="hsl(228.5, 77.2%, 51.5%)" stroke-width="1.5"></path>
        <path d="M1113.17 686.92L1287.31 640.07" stroke="hsl(228.5, 77.2%, 51.5%)" stroke-width="1.5"></path>
        <path d="M1113.17 686.92L995.25 535.53" stroke="hsl(228.5, 77.2%, 51.5%)" stroke-width="1.5"></path>
        <path d="M1284.65 226.18L1284.65 226.18" stroke="hsl(228.5, 77.2%, 51.5%)" stroke-width="1.5"></path>
        <path d="M1287.31 640.07L1287.31 640.07" stroke="hsl(228.5, 77.2%, 51.5%)" stroke-width="1.5"></path>
        <path d="M1287.31 640.07L1440.43 641.6" stroke="hsl(228.5, 77.2%, 51.5%)" stroke-width="1.5"></path>
        <path d="M1287.31 640.07L1397.24 505.16" stroke="hsl(228.5, 77.2%, 51.5%)" stroke-width="1.5"></path>
        <path d="M1395.27 -97.03L1395.27 -97.03" stroke="hsl(228.5, 77.2%, 51.5%)" stroke-width="1.5"></path>
        <path d="M1395.27 -97.03L1400.67 43.29" stroke="hsl(228.5, 77.2%, 51.5%)" stroke-width="1.5"></path>
        <path d="M1400.67 43.29L1400.67 43.29" stroke="hsl(228.5, 77.2%, 51.5%)" stroke-width="1.5"></path>
        <path d="M1440.43 641.6L1440.43 641.6" stroke="hsl(228.5, 77.2%, 51.5%)" stroke-width="1.5"></path>
        <path d="M1440.43 641.6L1575.11 683.58" stroke="hsl(228.5, 77.2%, 51.5%)" stroke-width="1.5"></path>
        <path d="M1440.43 641.6L1397.24 505.16" stroke="hsl(228.5, 77.2%, 51.5%)" stroke-width="1.5"></path>
        <path d="M1440.43 641.6L1571.68 541.39" stroke="hsl(228.5, 77.2%, 51.5%)" stroke-width="1.5"></path>
        <path d="M1567.18 72.97L1567.18 72.97" stroke="hsl(228.5, 77.2%, 51.5%)" stroke-width="1.5"></path>
        <path d="M1567.18 72.97L1560.29 191.2" stroke="hsl(228.5, 77.2%, 51.5%)" stroke-width="1.5"></path>
        <path d="M1567.18 72.97L1400.67 43.29" stroke="hsl(228.5, 77.2%, 51.5%)" stroke-width="1.5"></path>
        <path d="M1560.29 191.2L1560.29 191.2" stroke="hsl(228.5, 77.2%, 51.5%)" stroke-width="1.5"></path>
        <path d="M1560.29 191.2L1590.56 390.61" stroke="hsl(228.5, 77.2%, 51.5%)" stroke-width="1.5"></path>
        <path d="M1560.29 191.2L1400.67 43.29" stroke="hsl(228.5, 77.2%, 51.5%)" stroke-width="1.5"></path>
        <path d="M1590.56 390.61L1590.56 390.61" stroke="hsl(228.5, 77.2%, 51.5%)" stroke-width="1.5"></path>
        <path d="M1590.56 390.61L1571.68 541.39" stroke="hsl(228.5, 77.2%, 51.5%)" stroke-width="1.5"></path>
        <path d="M1590.56 390.61L1453.39 240.01" stroke="hsl(228.5, 77.2%, 51.5%)" stroke-width="1.5"></path>
        <path d="M1590.56 390.61L1397.24 505.16" stroke="hsl(228.5, 77.2%, 51.5%)" stroke-width="1.5"></path>
        <path d="M1571.68 541.39L1571.68 541.39" stroke="hsl(228.5, 77.2%, 51.5%)" stroke-width="1.5"></path>
        <path d="M1571.68 541.39L1575.11 683.58" stroke="hsl(228.5, 77.2%, 51.5%)" stroke-width="1.5"></path>
        <path d="M1571.68 541.39L1397.24 505.16" stroke="hsl(228.5, 77.2%, 51.5%)" stroke-width="1.5"></path>
        <path d="M1575.11 683.58L1575.11 683.58" stroke="hsl(228.5, 77.2%, 51.5%)" stroke-width="1.5"></path>
        <path d="M1575.11 683.58L1397.24 505.16" stroke="hsl(228.5, 77.2%, 51.5%)" stroke-width="1.5"></path>
        <path d="M1575.11 683.58L1287.31 640.07" stroke="hsl(228.5, 77.2%, 51.5%)" stroke-width="1.5"></path>
        <circle r="25" cx="72.36" cy="701.85" fill="url(&quot;#SvgjsRadialGradient1015&quot;)"></circle>
        <circle r="25" cx="211.08" cy="556.68" fill="url(&quot;#SvgjsRadialGradient1015&quot;)"></circle>
        <circle r="25" cx="364.42" cy="554.83" fill="url(&quot;#SvgjsRadialGradient1015&quot;)"></circle>
        <circle r="25" cx="379.32" cy="672.18" fill="url(&quot;#SvgjsRadialGradient1015&quot;)"></circle>
        <circle r="25" cx="684.58" cy="398.82" fill="url(&quot;#SvgjsRadialGradient1015&quot;)"></circle>
        <circle r="25" cx="677.94" cy="531.21" fill="url(&quot;#SvgjsRadialGradient1015&quot;)"></circle>
        <circle r="25" cx="995.25" cy="535.53" fill="url(&quot;#SvgjsRadialGradient1015&quot;)"></circle>
        <circle r="25" cx="1293.16" cy="-76.61" fill="url(&quot;#SvgjsRadialGradient1015&quot;)"></circle>
        <circle r="25" cx="1248.18" cy="83.31" fill="url(&quot;#SvgjsRadialGradient1015&quot;)"></circle>
        <circle r="25" cx="1272.66" cy="348.77" fill="url(&quot;#SvgjsRadialGradient1015&quot;)"></circle>
        <circle r="25" cx="1274.09" cy="546.68" fill="url(&quot;#SvgjsRadialGradient1015&quot;)"></circle>
        <circle r="25" cx="1453.39" cy="240.01" fill="url(&quot;#SvgjsRadialGradient1015&quot;)"></circle>
        <circle r="25" cx="1453.23" cy="384.81" fill="url(&quot;#SvgjsRadialGradient1015&quot;)"></circle>
        <circle r="25" cx="1397.24" cy="505.16" fill="url(&quot;#SvgjsRadialGradient1015&quot;)"></circle>
        <circle r="25" cx="1556.46" cy="-87.81" fill="url(&quot;#SvgjsRadialGradient1015&quot;)"></circle>
        <circle r="5" cx="-61.77" cy="487.53" fill="#8b9ad9"></circle>
        <circle r="5" cx="-69.45" cy="700.8" fill="#8b9ad9"></circle>
        <circle r="5" cx="78.16" cy="518.33" fill="#8b9ad9"></circle>
        <circle r="5" cx="227.9" cy="681.95" fill="#8b9ad9"></circle>
        <circle r="5" cx="523.32" cy="541.55" fill="#8b9ad9"></circle>
        <circle r="5" cx="539.25" cy="667.12" fill="#8b9ad9"></circle>
        <circle r="5" cx="810.55" cy="642.62" fill="#8b9ad9"></circle>
        <circle r="5" cx="965.88" cy="346.44" fill="#8b9ad9"></circle>
        <circle r="5" cx="1010.76" cy="656.17" fill="#8b9ad9"></circle>
        <circle r="5" cx="1131.27" cy="91.52" fill="#8b9ad9"></circle>
        <circle r="5" cx="1095.48" cy="198.3" fill="#8b9ad9"></circle>
        <circle r="5" cx="1111.22" cy="398.93" fill="#8b9ad9"></circle>
        <circle r="5" cx="1113.17" cy="686.92" fill="#8b9ad9"></circle>
        <circle r="5" cx="1284.65" cy="226.18" fill="#8b9ad9"></circle>
        <circle r="5" cx="1287.31" cy="640.07" fill="#8b9ad9"></circle>
        <circle r="5" cx="1395.27" cy="-97.03" fill="#8b9ad9"></circle>
        <circle r="5" cx="1400.67" cy="43.29" fill="#8b9ad9"></circle>
        <circle r="5" cx="1440.43" cy="641.6" fill="#8b9ad9"></circle>
        <circle r="5" cx="1567.18" cy="72.97" fill="#8b9ad9"></circle>
        <circle r="5" cx="1560.29" cy="191.2" fill="#8b9ad9"></circle>
        <circle r="5" cx="1590.56" cy="390.61" fill="#8b9ad9"></circle>
        <circle r="5" cx="1571.68" cy="541.39" fill="#8b9ad9"></circle>
        <circle r="5" cx="1575.11" cy="683.58" fill="#8b9ad9"></circle>
    </g>
    <defs>
        <mask id="SvgjsMask1014">
            <rect width="1440" height="560" fill="#ffffff"></rect>
        </mask>
        <radialGradient id="SvgjsRadialGradient1015">
            <stop stop-color="#ffffff" offset="0.1"></stop>
            <stop stop-color="#1735b3" offset="0.2"></stop>
            <stop stop-color="rgba(23, 53, 179, 0)" offset="1"></stop>
        </radialGradient>
    </defs>
</svg>