<svg xmlns="http://www.w3.org/2000/svg" version="1.1" xmlns:xlink="http://www.w3.org/1999/xlink" xmlns:svgjs="http://svgjs.dev/svgjs" width="1440" height="560" preserveAspectRatio="none" viewBox="0 0 1440 560">
    <g mask="url(&quot;#SvgjsMask1000&quot;)" fill="none">
        <rect width="1440" height="560" x="0" y="0" fill="#0e2a47"></rect>
        <path d="M234.6 63.29L299.56 100.79L299.56 175.79L234.6 213.29L169.65 175.79L169.65 100.79zM169.65 175.79L234.6 213.29L234.6 288.29L169.65 325.79L104.69 288.29L104.69 213.29zM234.6 288.29L299.56 325.79L299.56 400.79L234.6 438.29L169.65 400.79L169.65 325.79zM234.6 513.29L299.56 550.79L299.56 625.79L234.6 663.29L169.65 625.79L169.65 550.79zM429.46 175.79L494.42 213.29L494.42 288.29L429.46 325.79L364.51 288.29L364.51 213.29zM494.42 288.29L559.37 325.79L559.37 400.79L494.42 438.29L429.46 400.79L429.46 325.79zM494.42 513.29L559.37 550.79L559.37 625.79L494.42 663.29L429.46 625.79L429.46 550.79zM559.37 175.79L624.32 213.29L624.32 288.29L559.37 325.79L494.42 288.29L494.42 213.29zM689.28 -49.21L754.23 -11.71L754.23 63.29L689.28 100.79L624.32 63.29L624.32 -11.71zM689.28 175.79L754.23 213.29L754.23 288.29L689.28 325.79L624.32 288.29L624.32 213.29zM754.23 513.29L819.19 550.79L819.19 625.79L754.23 663.29L689.28 625.79L689.28 550.79zM819.18 400.79L884.14 438.29L884.14 513.29L819.18 550.79L754.23 513.29L754.23 438.29zM949.09 175.79L1014.05 213.29L1014.05 288.29L949.09 325.79L884.14 288.29L884.14 213.29zM1079 -49.21L1143.95 -11.71L1143.95 63.29L1079 100.79L1014.05 63.29L1014.05 -11.71zM1143.95 63.29L1208.91 100.79L1208.91 175.79L1143.95 213.29L1079 175.79L1079 100.79zM1079 400.79L1143.95 438.29L1143.95 513.29L1079 550.79L1014.05 513.29L1014.05 438.29zM1143.95 513.29L1208.91 550.79L1208.91 625.79L1143.95 663.29L1079 625.79L1079 550.79zM1273.86 63.29L1338.81 100.79L1338.81 175.79L1273.86 213.29L1208.91 175.79L1208.91 100.79zM1273.86 513.29L1338.81 550.79L1338.81 625.79L1273.86 663.29L1208.91 625.79L1208.91 550.79zM1338.82 175.79L1403.77 213.29L1403.77 288.29L1338.82 325.79L1273.86 288.29L1273.86 213.29zM1338.82 400.79L1403.77 438.29L1403.77 513.29L1338.82 550.79L1273.86 513.29L1273.86 438.29zM1533.68 63.29L1598.63 100.79L1598.63 175.79L1533.68 213.29L1468.72 175.79L1468.72 100.79zM1533.68 513.29L1598.63 550.79L1598.63 625.79L1533.68 663.29L1468.72 625.79L1468.72 550.79z" stroke="#03305d" stroke-width="2"></path>
        <path d="M227.1 63.29 a7.5 7.5 0 1 0 15 0 a7.5 7.5 0 1 0 -15 0zM292.06 100.79 a7.5 7.5 0 1 0 15 0 a7.5 7.5 0 1 0 -15 0zM292.06 175.79 a7.5 7.5 0 1 0 15 0 a7.5 7.5 0 1 0 -15 0zM227.1 213.29 a7.5 7.5 0 1 0 15 0 a7.5 7.5 0 1 0 -15 0zM162.15 175.79 a7.5 7.5 0 1 0 15 0 a7.5 7.5 0 1 0 -15 0zM162.15 100.79 a7.5 7.5 0 1 0 15 0 a7.5 7.5 0 1 0 -15 0zM227.1 288.29 a7.5 7.5 0 1 0 15 0 a7.5 7.5 0 1 0 -15 0zM162.15 325.79 a7.5 7.5 0 1 0 15 0 a7.5 7.5 0 1 0 -15 0zM97.19 288.29 a7.5 7.5 0 1 0 15 0 a7.5 7.5 0 1 0 -15 0zM97.19 213.29 a7.5 7.5 0 1 0 15 0 a7.5 7.5 0 1 0 -15 0zM292.06 325.79 a7.5 7.5 0 1 0 15 0 a7.5 7.5 0 1 0 -15 0zM292.06 400.79 a7.5 7.5 0 1 0 15 0 a7.5 7.5 0 1 0 -15 0zM227.1 438.29 a7.5 7.5 0 1 0 15 0 a7.5 7.5 0 1 0 -15 0zM162.15 400.79 a7.5 7.5 0 1 0 15 0 a7.5 7.5 0 1 0 -15 0zM227.1 513.29 a7.5 7.5 0 1 0 15 0 a7.5 7.5 0 1 0 -15 0zM292.06 550.79 a7.5 7.5 0 1 0 15 0 a7.5 7.5 0 1 0 -15 0zM292.06 625.79 a7.5 7.5 0 1 0 15 0 a7.5 7.5 0 1 0 -15 0zM227.1 663.29 a7.5 7.5 0 1 0 15 0 a7.5 7.5 0 1 0 -15 0zM162.15 625.79 a7.5 7.5 0 1 0 15 0 a7.5 7.5 0 1 0 -15 0zM162.15 550.79 a7.5 7.5 0 1 0 15 0 a7.5 7.5 0 1 0 -15 0zM421.96 175.79 a7.5 7.5 0 1 0 15 0 a7.5 7.5 0 1 0 -15 0zM486.92 213.29 a7.5 7.5 0 1 0 15 0 a7.5 7.5 0 1 0 -15 0zM486.92 288.29 a7.5 7.5 0 1 0 15 0 a7.5 7.5 0 1 0 -15 0zM421.96 325.79 a7.5 7.5 0 1 0 15 0 a7.5 7.5 0 1 0 -15 0zM357.01 288.29 a7.5 7.5 0 1 0 15 0 a7.5 7.5 0 1 0 -15 0zM357.01 213.29 a7.5 7.5 0 1 0 15 0 a7.5 7.5 0 1 0 -15 0zM551.87 325.79 a7.5 7.5 0 1 0 15 0 a7.5 7.5 0 1 0 -15 0zM551.87 400.79 a7.5 7.5 0 1 0 15 0 a7.5 7.5 0 1 0 -15 0zM486.92 438.29 a7.5 7.5 0 1 0 15 0 a7.5 7.5 0 1 0 -15 0zM421.96 400.79 a7.5 7.5 0 1 0 15 0 a7.5 7.5 0 1 0 -15 0zM486.92 513.29 a7.5 7.5 0 1 0 15 0 a7.5 7.5 0 1 0 -15 0zM551.87 550.79 a7.5 7.5 0 1 0 15 0 a7.5 7.5 0 1 0 -15 0zM551.87 625.79 a7.5 7.5 0 1 0 15 0 a7.5 7.5 0 1 0 -15 0zM486.92 663.29 a7.5 7.5 0 1 0 15 0 a7.5 7.5 0 1 0 -15 0zM421.96 625.79 a7.5 7.5 0 1 0 15 0 a7.5 7.5 0 1 0 -15 0zM421.96 550.79 a7.5 7.5 0 1 0 15 0 a7.5 7.5 0 1 0 -15 0zM551.87 175.79 a7.5 7.5 0 1 0 15 0 a7.5 7.5 0 1 0 -15 0zM616.82 213.29 a7.5 7.5 0 1 0 15 0 a7.5 7.5 0 1 0 -15 0zM616.82 288.29 a7.5 7.5 0 1 0 15 0 a7.5 7.5 0 1 0 -15 0zM681.78 -49.21 a7.5 7.5 0 1 0 15 0 a7.5 7.5 0 1 0 -15 0zM746.73 -11.71 a7.5 7.5 0 1 0 15 0 a7.5 7.5 0 1 0 -15 0zM746.73 63.29 a7.5 7.5 0 1 0 15 0 a7.5 7.5 0 1 0 -15 0zM681.78 100.79 a7.5 7.5 0 1 0 15 0 a7.5 7.5 0 1 0 -15 0zM616.82 63.29 a7.5 7.5 0 1 0 15 0 a7.5 7.5 0 1 0 -15 0zM616.82 -11.71 a7.5 7.5 0 1 0 15 0 a7.5 7.5 0 1 0 -15 0zM681.78 175.79 a7.5 7.5 0 1 0 15 0 a7.5 7.5 0 1 0 -15 0zM746.73 213.29 a7.5 7.5 0 1 0 15 0 a7.5 7.5 0 1 0 -15 0zM746.73 288.29 a7.5 7.5 0 1 0 15 0 a7.5 7.5 0 1 0 -15 0zM681.78 325.79 a7.5 7.5 0 1 0 15 0 a7.5 7.5 0 1 0 -15 0zM746.73 513.29 a7.5 7.5 0 1 0 15 0 a7.5 7.5 0 1 0 -15 0zM811.69 550.79 a7.5 7.5 0 1 0 15 0 a7.5 7.5 0 1 0 -15 0zM811.69 625.79 a7.5 7.5 0 1 0 15 0 a7.5 7.5 0 1 0 -15 0zM746.73 663.29 a7.5 7.5 0 1 0 15 0 a7.5 7.5 0 1 0 -15 0zM681.78 625.79 a7.5 7.5 0 1 0 15 0 a7.5 7.5 0 1 0 -15 0zM681.78 550.79 a7.5 7.5 0 1 0 15 0 a7.5 7.5 0 1 0 -15 0zM811.68 400.79 a7.5 7.5 0 1 0 15 0 a7.5 7.5 0 1 0 -15 0zM876.64 438.29 a7.5 7.5 0 1 0 15 0 a7.5 7.5 0 1 0 -15 0zM876.64 513.29 a7.5 7.5 0 1 0 15 0 a7.5 7.5 0 1 0 -15 0zM811.68 550.79 a7.5 7.5 0 1 0 15 0 a7.5 7.5 0 1 0 -15 0zM746.73 438.29 a7.5 7.5 0 1 0 15 0 a7.5 7.5 0 1 0 -15 0zM941.59 175.79 a7.5 7.5 0 1 0 15 0 a7.5 7.5 0 1 0 -15 0zM1006.55 213.29 a7.5 7.5 0 1 0 15 0 a7.5 7.5 0 1 0 -15 0zM1006.55 288.29 a7.5 7.5 0 1 0 15 0 a7.5 7.5 0 1 0 -15 0zM941.59 325.79 a7.5 7.5 0 1 0 15 0 a7.5 7.5 0 1 0 -15 0zM876.64 288.29 a7.5 7.5 0 1 0 15 0 a7.5 7.5 0 1 0 -15 0zM876.64 213.29 a7.5 7.5 0 1 0 15 0 a7.5 7.5 0 1 0 -15 0zM1071.5 -49.21 a7.5 7.5 0 1 0 15 0 a7.5 7.5 0 1 0 -15 0zM1136.45 -11.71 a7.5 7.5 0 1 0 15 0 a7.5 7.5 0 1 0 -15 0zM1136.45 63.29 a7.5 7.5 0 1 0 15 0 a7.5 7.5 0 1 0 -15 0zM1071.5 100.79 a7.5 7.5 0 1 0 15 0 a7.5 7.5 0 1 0 -15 0zM1006.55 63.29 a7.5 7.5 0 1 0 15 0 a7.5 7.5 0 1 0 -15 0zM1006.55 -11.71 a7.5 7.5 0 1 0 15 0 a7.5 7.5 0 1 0 -15 0zM1201.41 100.79 a7.5 7.5 0 1 0 15 0 a7.5 7.5 0 1 0 -15 0zM1201.41 175.79 a7.5 7.5 0 1 0 15 0 a7.5 7.5 0 1 0 -15 0zM1136.45 213.29 a7.5 7.5 0 1 0 15 0 a7.5 7.5 0 1 0 -15 0zM1071.5 175.79 a7.5 7.5 0 1 0 15 0 a7.5 7.5 0 1 0 -15 0zM1071.5 400.79 a7.5 7.5 0 1 0 15 0 a7.5 7.5 0 1 0 -15 0zM1136.45 438.29 a7.5 7.5 0 1 0 15 0 a7.5 7.5 0 1 0 -15 0zM1136.45 513.29 a7.5 7.5 0 1 0 15 0 a7.5 7.5 0 1 0 -15 0zM1071.5 550.79 a7.5 7.5 0 1 0 15 0 a7.5 7.5 0 1 0 -15 0zM1006.55 513.29 a7.5 7.5 0 1 0 15 0 a7.5 7.5 0 1 0 -15 0zM1006.55 438.29 a7.5 7.5 0 1 0 15 0 a7.5 7.5 0 1 0 -15 0zM1201.41 550.79 a7.5 7.5 0 1 0 15 0 a7.5 7.5 0 1 0 -15 0zM1201.41 625.79 a7.5 7.5 0 1 0 15 0 a7.5 7.5 0 1 0 -15 0zM1136.45 663.29 a7.5 7.5 0 1 0 15 0 a7.5 7.5 0 1 0 -15 0zM1071.5 625.79 a7.5 7.5 0 1 0 15 0 a7.5 7.5 0 1 0 -15 0zM1266.36 63.29 a7.5 7.5 0 1 0 15 0 a7.5 7.5 0 1 0 -15 0zM1331.31 100.79 a7.5 7.5 0 1 0 15 0 a7.5 7.5 0 1 0 -15 0zM1331.31 175.79 a7.5 7.5 0 1 0 15 0 a7.5 7.5 0 1 0 -15 0zM1266.36 213.29 a7.5 7.5 0 1 0 15 0 a7.5 7.5 0 1 0 -15 0zM1266.36 513.29 a7.5 7.5 0 1 0 15 0 a7.5 7.5 0 1 0 -15 0zM1331.31 550.79 a7.5 7.5 0 1 0 15 0 a7.5 7.5 0 1 0 -15 0zM1331.31 625.79 a7.5 7.5 0 1 0 15 0 a7.5 7.5 0 1 0 -15 0zM1266.36 663.29 a7.5 7.5 0 1 0 15 0 a7.5 7.5 0 1 0 -15 0zM1331.32 175.79 a7.5 7.5 0 1 0 15 0 a7.5 7.5 0 1 0 -15 0zM1396.27 213.29 a7.5 7.5 0 1 0 15 0 a7.5 7.5 0 1 0 -15 0zM1396.27 288.29 a7.5 7.5 0 1 0 15 0 a7.5 7.5 0 1 0 -15 0zM1331.32 325.79 a7.5 7.5 0 1 0 15 0 a7.5 7.5 0 1 0 -15 0zM1266.36 288.29 a7.5 7.5 0 1 0 15 0 a7.5 7.5 0 1 0 -15 0zM1331.32 400.79 a7.5 7.5 0 1 0 15 0 a7.5 7.5 0 1 0 -15 0zM1396.27 438.29 a7.5 7.5 0 1 0 15 0 a7.5 7.5 0 1 0 -15 0zM1396.27 513.29 a7.5 7.5 0 1 0 15 0 a7.5 7.5 0 1 0 -15 0zM1331.32 550.79 a7.5 7.5 0 1 0 15 0 a7.5 7.5 0 1 0 -15 0zM1266.36 438.29 a7.5 7.5 0 1 0 15 0 a7.5 7.5 0 1 0 -15 0zM1526.18 63.29 a7.5 7.5 0 1 0 15 0 a7.5 7.5 0 1 0 -15 0zM1591.13 100.79 a7.5 7.5 0 1 0 15 0 a7.5 7.5 0 1 0 -15 0zM1591.13 175.79 a7.5 7.5 0 1 0 15 0 a7.5 7.5 0 1 0 -15 0zM1526.18 213.29 a7.5 7.5 0 1 0 15 0 a7.5 7.5 0 1 0 -15 0zM1461.22 175.79 a7.5 7.5 0 1 0 15 0 a7.5 7.5 0 1 0 -15 0zM1461.22 100.79 a7.5 7.5 0 1 0 15 0 a7.5 7.5 0 1 0 -15 0zM1526.18 513.29 a7.5 7.5 0 1 0 15 0 a7.5 7.5 0 1 0 -15 0zM1591.13 550.79 a7.5 7.5 0 1 0 15 0 a7.5 7.5 0 1 0 -15 0zM1591.13 625.79 a7.5 7.5 0 1 0 15 0 a7.5 7.5 0 1 0 -15 0zM1526.18 663.29 a7.5 7.5 0 1 0 15 0 a7.5 7.5 0 1 0 -15 0zM1461.22 625.79 a7.5 7.5 0 1 0 15 0 a7.5 7.5 0 1 0 -15 0zM1461.22 550.79 a7.5 7.5 0 1 0 15 0 a7.5 7.5 0 1 0 -15 0z" fill="#03305d"></path>
        <path d="M82.49 46.95L125.8 71.95L125.8 121.95L82.49 146.95L39.19 121.95L39.19 71.95zM82.49 196.95L125.8 221.95L125.8 271.95L82.49 296.95L39.19 271.95L39.19 221.95zM39.19 271.95L82.49 296.95L82.49 346.95L39.19 371.95L-4.11 346.95L-4.11 296.95zM39.19 421.95L82.49 446.95L82.49 496.95L39.19 521.95L-4.11 496.95L-4.11 446.95zM82.49 496.95L125.8 521.95L125.8 571.95L82.49 596.95L39.19 571.95L39.19 521.95zM125.8 121.95L169.1 146.95L169.1 196.95L125.8 221.95L82.49 196.95L82.49 146.95zM169.1 196.95L212.4 221.95L212.4 271.95L169.1 296.95L125.8 271.95L125.8 221.95zM169.1 346.95L212.4 371.95L212.4 421.95L169.1 446.95L125.8 421.95L125.8 371.95zM125.8 421.95L169.1 446.95L169.1 496.95L125.8 521.95L82.49 496.95L82.49 446.95zM169.1 496.95L212.4 521.95L212.4 571.95L169.1 596.95L125.8 571.95L125.8 521.95zM255.7 46.95L299 71.95L299 121.95L255.7 146.95L212.4 121.95L212.4 71.95zM212.4 121.95L255.7 146.95L255.7 196.95L212.4 221.95L169.1 196.95L169.1 146.95zM212.4 421.95L255.7 446.95L255.7 496.95L212.4 521.95L169.1 496.95L169.1 446.95zM255.7 496.95L299 521.95L299 571.95L255.7 596.95L212.4 571.95L212.4 521.95zM299 -28.05L342.31 -3.05L342.31 46.95L299 71.95L255.7 46.95L255.7 -3.05zM342.31 196.95L385.61 221.95L385.61 271.95L342.31 296.95L299 271.95L299 221.95zM299 271.95L342.31 296.95L342.31 346.95L299 371.95L255.7 346.95L255.7 296.95zM299 421.95L342.31 446.95L342.31 496.95L299 521.95L255.7 496.95L255.7 446.95zM342.31 496.95L385.61 521.95L385.61 571.95L342.31 596.95L299 571.95L299 521.95zM385.61 -28.05L428.91 -3.05L428.91 46.95L385.61 71.95L342.31 46.95L342.31 -3.05zM385.61 121.95L428.91 146.95L428.91 196.95L385.61 221.95L342.31 196.95L342.31 146.95zM428.91 196.95L472.22 221.95L472.22 271.95L428.91 296.95L385.61 271.95L385.61 221.95zM385.61 421.95L428.91 446.95L428.91 496.95L385.61 521.95L342.31 496.95L342.31 446.95zM472.22 -28.05L515.52 -3.05L515.52 46.95L472.22 71.95L428.91 46.95L428.91 -3.05zM515.52 46.95L558.82 71.95L558.82 121.95L515.52 146.95L472.22 121.95L472.22 71.95zM515.52 346.95L558.82 371.95L558.82 421.95L515.52 446.95L472.22 421.95L472.22 371.95zM472.22 421.95L515.52 446.95L515.52 496.95L472.22 521.95L428.91 496.95L428.91 446.95zM558.82 271.95L602.12 296.95L602.12 346.95L558.82 371.95L515.52 346.95L515.52 296.95zM602.12 346.95L645.42 371.95L645.42 421.95L602.12 446.95L558.82 421.95L558.82 371.95zM602.12 496.95L645.42 521.95L645.42 571.95L602.12 596.95L558.82 571.95L558.82 521.95zM645.42 -28.05L688.73 -3.05L688.73 46.95L645.42 71.95L602.12 46.95L602.12 -3.05zM688.73 196.95L732.03 221.95L732.03 271.95L688.73 296.95L645.42 271.95L645.42 221.95zM688.73 496.95L732.03 521.95L732.03 571.95L688.73 596.95L645.42 571.95L645.42 521.95zM732.03 -28.05L775.33 -3.05L775.33 46.95L732.03 71.95L688.73 46.95L688.73 -3.05zM775.33 46.95L818.63 71.95L818.63 121.95L775.33 146.95L732.03 121.95L732.03 71.95zM732.03 121.95L775.33 146.95L775.33 196.95L732.03 221.95L688.73 196.95L688.73 146.95zM732.03 421.95L775.33 446.95L775.33 496.95L732.03 521.95L688.73 496.95L688.73 446.95zM818.63 121.95L861.94 146.95L861.94 196.95L818.63 221.95L775.33 196.95L775.33 146.95zM861.94 196.95L905.24 221.95L905.24 271.95L861.94 296.95L818.63 271.95L818.63 221.95zM818.63 421.95L861.94 446.95L861.94 496.95L818.63 521.95L775.33 496.95L775.33 446.95zM905.24 -28.05L948.54 -3.05L948.54 46.95L905.24 71.95L861.94 46.95L861.94 -3.05zM948.54 46.95L991.85 71.95L991.85 121.95L948.54 146.95L905.24 121.95L905.24 71.95zM948.54 196.95L991.85 221.95L991.85 271.95L948.54 296.95L905.24 271.95L905.24 221.95zM905.24 271.95L948.54 296.95L948.54 346.95L905.24 371.95L861.94 346.95L861.94 296.95zM905.24 421.95L948.54 446.95L948.54 496.95L905.24 521.95L861.94 496.95L861.94 446.95zM948.54 496.95L991.85 521.95L991.85 571.95L948.54 596.95L905.24 571.95L905.24 521.95zM1035.15 46.95L1078.45 71.95L1078.45 121.95L1035.15 146.95L991.85 121.95L991.85 71.95zM1035.15 346.95L1078.45 371.95L1078.45 421.95L1035.15 446.95L991.85 421.95L991.85 371.95zM991.85 421.95L1035.15 446.95L1035.15 496.95L991.85 521.95L948.54 496.95L948.54 446.95zM1078.45 121.95L1121.75 146.95L1121.75 196.95L1078.45 221.95L1035.15 196.95L1035.15 146.95zM1121.75 196.95L1165.06 221.95L1165.06 271.95L1121.75 296.95L1078.45 271.95L1078.45 221.95zM1078.45 421.95L1121.75 446.95L1121.75 496.95L1078.45 521.95L1035.15 496.95L1035.15 446.95zM1121.75 496.95L1165.06 521.95L1165.06 571.95L1121.75 596.95L1078.45 571.95L1078.45 521.95zM1208.36 46.95L1251.66 71.95L1251.66 121.95L1208.36 146.95L1165.06 121.95L1165.06 71.95zM1165.06 121.95L1208.36 146.95L1208.36 196.95L1165.06 221.95L1121.75 196.95L1121.75 146.95zM1208.36 496.95L1251.66 521.95L1251.66 571.95L1208.36 596.95L1165.06 571.95L1165.06 521.95zM1251.66 121.95L1294.96 146.95L1294.96 196.95L1251.66 221.95L1208.36 196.95L1208.36 146.95zM1294.96 196.95L1338.27 221.95L1338.27 271.95L1294.96 296.95L1251.66 271.95L1251.66 221.95zM1381.57 46.95L1424.87 71.95L1424.87 121.95L1381.57 146.95L1338.27 121.95L1338.27 71.95zM1424.87 -28.05L1468.17 -3.05L1468.17 46.95L1424.87 71.95L1381.57 46.95L1381.57 -3.05zM1468.17 46.95L1511.48 71.95L1511.48 121.95L1468.17 146.95L1424.87 121.95L1424.87 71.95zM1424.87 121.95L1468.17 146.95L1468.17 196.95L1424.87 221.95L1381.57 196.95L1381.57 146.95zM1424.87 271.95L1468.17 296.95L1468.17 346.95L1424.87 371.95L1381.57 346.95L1381.57 296.95z" stroke="rgba(6, 80, 156, 0.93)" stroke-width="2"></path>
    </g>
    <defs>
        <mask id="SvgjsMask1000">
            <rect width="1440" height="560" fill="#ffffff"></rect>
        </mask>
    </defs>
</svg>